STARTFONT 2.1
FONT -Fondu-Monaco-Medium-R-Normal--14-130-75-75-P-79-MacRoman-1
SIZE 13 75 75
FONTBOUNDINGBOX 9 17 0 -3
COMMENT Created by Fondu from a mac NFNT/FONT resource
STARTPROPERTIES 17
FOUNDRY "Fondu"
FAMILY_NAME "Monaco"
WEIGHT_NAME "Medium"
SLANT "R"
SETWIDTH_NAME "Normal"
ADD_STYLE_NAME ""
PIXEL_SIZE 14
POINT_SIZE 130
RESOLUTION_X 75
RESOLUTION_Y 75
SPACING "P"
AVERAGE_WIDTH 79
CHARSET_REGISTRY "MacRoman"
CHARSET_ENCODING "1"
FONT_ASCENT 14
FONT_DESCENT 3
FACE_NAME "Monaco 14"
ENDPROPERTIES
CHARS 224
STARTCHAR space
ENCODING 32
SWIDTH 600 0
DWIDTH 8 0
BBX 0 0 0 -3
BITMAP
ENDCHAR
STARTCHAR exclam
ENCODING 33
SWIDTH 600 0
DWIDTH 8 0
BBX 1 11 3 0
BITMAP
80
80
80
80
80
80
80
80
80
00
80
ENDCHAR
STARTCHAR quotedbl
ENCODING 34
SWIDTH 600 0
DWIDTH 8 0
BBX 3 4 3 7
BITMAP
A0
A0
A0
A0
ENDCHAR
STARTCHAR numbersign
ENCODING 35
SWIDTH 600 0
DWIDTH 8 0
BBX 8 11 0 0
BITMAP
12
12
12
FF
24
24
24
FF
48
48
48
ENDCHAR
STARTCHAR dollar
ENCODING 36
SWIDTH 600 0
DWIDTH 8 0
BBX 5 15 1 -2
BITMAP
20
20
70
A8
A8
A0
60
30
28
28
A8
A8
70
20
20
ENDCHAR
STARTCHAR percent
ENCODING 37
SWIDTH 600 0
DWIDTH 8 0
BBX 9 11 0 0
BITMAP
6100
9200
9200
9400
6800
0800
1600
2900
2900
4900
8600
ENDCHAR
STARTCHAR ampersand
ENCODING 38
SWIDTH 600 0
DWIDTH 8 0
BBX 8 11 0 0
BITMAP
30
48
48
48
50
22
52
8A
84
86
79
ENDCHAR
STARTCHAR quotesingle
ENCODING 39
SWIDTH 600 0
DWIDTH 8 0
BBX 1 3 4 8
BITMAP
80
80
80
ENDCHAR
STARTCHAR parenleft
ENCODING 40
SWIDTH 600 0
DWIDTH 8 0
BBX 5 14 1 -2
BITMAP
08
10
20
40
40
80
80
80
80
40
40
20
10
08
ENDCHAR
STARTCHAR parenright
ENCODING 41
SWIDTH 600 0
DWIDTH 8 0
BBX 5 14 2 -2
BITMAP
80
40
20
10
10
08
08
08
08
10
10
20
40
80
ENDCHAR
STARTCHAR asterisk
ENCODING 42
SWIDTH 600 0
DWIDTH 8 0
BBX 5 6 1 5
BITMAP
20
A8
70
70
A8
20
ENDCHAR
STARTCHAR plus
ENCODING 43
SWIDTH 600 0
DWIDTH 8 0
BBX 7 7 0 2
BITMAP
10
10
10
FE
10
10
10
ENDCHAR
STARTCHAR comma
ENCODING 44
SWIDTH 600 0
DWIDTH 8 0
BBX 2 5 4 -3
BITMAP
C0
C0
40
40
80
ENDCHAR
STARTCHAR hyphen
ENCODING 45
SWIDTH 600 0
DWIDTH 8 0
BBX 7 1 1 5
BITMAP
FE
ENDCHAR
STARTCHAR period
ENCODING 46
SWIDTH 600 0
DWIDTH 8 0
BBX 2 2 3 0
BITMAP
C0
C0
ENDCHAR
STARTCHAR slash
ENCODING 47
SWIDTH 600 0
DWIDTH 8 0
BBX 6 11 1 0
BITMAP
04
04
08
08
10
20
20
40
40
80
80
ENDCHAR
STARTCHAR zero
ENCODING 48
SWIDTH 600 0
DWIDTH 8 0
BBX 7 11 0 0
BITMAP
38
44
82
86
8A
92
A2
C2
82
44
38
ENDCHAR
STARTCHAR one
ENCODING 49
SWIDTH 600 0
DWIDTH 8 0
BBX 7 11 1 0
BITMAP
30
50
90
10
10
10
10
10
10
10
FE
ENDCHAR
STARTCHAR two
ENCODING 50
SWIDTH 600 0
DWIDTH 8 0
BBX 6 11 1 0
BITMAP
78
84
04
04
08
10
20
40
80
80
FC
ENDCHAR
STARTCHAR three
ENCODING 51
SWIDTH 600 0
DWIDTH 8 0
BBX 6 11 1 0
BITMAP
F0
08
08
08
10
70
08
04
04
08
F0
ENDCHAR
STARTCHAR four
ENCODING 52
SWIDTH 600 0
DWIDTH 8 0
BBX 8 11 0 0
BITMAP
04
0C
14
24
24
44
84
FF
04
04
04
ENDCHAR
STARTCHAR five
ENCODING 53
SWIDTH 600 0
DWIDTH 8 0
BBX 6 11 1 0
BITMAP
FC
80
80
80
F0
08
04
04
04
08
F0
ENDCHAR
STARTCHAR six
ENCODING 54
SWIDTH 600 0
DWIDTH 8 0
BBX 7 11 0 0
BITMAP
3C
40
80
80
BC
C2
82
82
82
44
38
ENDCHAR
STARTCHAR seven
ENCODING 55
SWIDTH 600 0
DWIDTH 8 0
BBX 6 11 1 0
BITMAP
FC
04
08
10
10
20
20
40
40
40
40
ENDCHAR
STARTCHAR eight
ENCODING 56
SWIDTH 600 0
DWIDTH 8 0
BBX 6 11 1 0
BITMAP
78
84
84
84
48
30
48
84
84
84
78
ENDCHAR
STARTCHAR nine
ENCODING 57
SWIDTH 600 0
DWIDTH 8 0
BBX 7 11 0 0
BITMAP
38
44
82
82
82
86
7A
02
04
04
78
ENDCHAR
STARTCHAR colon
ENCODING 58
SWIDTH 600 0
DWIDTH 8 0
BBX 2 8 3 0
BITMAP
C0
C0
00
00
00
00
C0
C0
ENDCHAR
STARTCHAR semicolon
ENCODING 59
SWIDTH 600 0
DWIDTH 8 0
BBX 2 11 3 -3
BITMAP
C0
C0
00
00
00
00
C0
C0
40
40
80
ENDCHAR
STARTCHAR less
ENCODING 60
SWIDTH 600 0
DWIDTH 8 0
BBX 8 7 0 2
BITMAP
03
0C
30
C0
30
0C
03
ENDCHAR
STARTCHAR equal
ENCODING 61
SWIDTH 600 0
DWIDTH 8 0
BBX 6 3 1 4
BITMAP
FC
00
FC
ENDCHAR
STARTCHAR greater
ENCODING 62
SWIDTH 600 0
DWIDTH 8 0
BBX 8 7 0 2
BITMAP
C0
30
0C
03
0C
30
C0
ENDCHAR
STARTCHAR question
ENCODING 63
SWIDTH 600 0
DWIDTH 8 0
BBX 6 12 1 -1
BITMAP
70
88
84
04
08
10
20
20
20
00
20
20
ENDCHAR
STARTCHAR at
ENCODING 64
SWIDTH 600 0
DWIDTH 8 0
BBX 8 11 0 0
BITMAP
3C
42
81
9D
A5
A5
A5
9E
80
40
3C
ENDCHAR
STARTCHAR A
ENCODING 65
SWIDTH 600 0
DWIDTH 8 0
BBX 8 11 0 0
BITMAP
18
18
18
24
24
24
42
42
7E
81
81
ENDCHAR
STARTCHAR B
ENCODING 66
SWIDTH 600 0
DWIDTH 8 0
BBX 6 11 1 0
BITMAP
F8
84
84
84
84
F8
84
84
84
84
F8
ENDCHAR
STARTCHAR C
ENCODING 67
SWIDTH 600 0
DWIDTH 8 0
BBX 6 11 1 0
BITMAP
3C
40
80
80
80
80
80
80
80
40
3C
ENDCHAR
STARTCHAR D
ENCODING 68
SWIDTH 600 0
DWIDTH 8 0
BBX 6 11 1 0
BITMAP
F0
88
84
84
84
84
84
84
84
88
F0
ENDCHAR
STARTCHAR E
ENCODING 69
SWIDTH 600 0
DWIDTH 8 0
BBX 6 11 1 0
BITMAP
FC
80
80
80
80
FC
80
80
80
80
FC
ENDCHAR
STARTCHAR F
ENCODING 70
SWIDTH 600 0
DWIDTH 8 0
BBX 6 11 1 0
BITMAP
FC
80
80
80
80
FC
80
80
80
80
80
ENDCHAR
STARTCHAR G
ENCODING 71
SWIDTH 600 0
DWIDTH 8 0
BBX 6 11 1 0
BITMAP
3C
40
80
80
80
80
8C
84
84
44
3C
ENDCHAR
STARTCHAR H
ENCODING 72
SWIDTH 600 0
DWIDTH 8 0
BBX 6 11 1 0
BITMAP
84
84
84
84
84
FC
84
84
84
84
84
ENDCHAR
STARTCHAR I
ENCODING 73
SWIDTH 600 0
DWIDTH 8 0
BBX 5 11 1 0
BITMAP
F8
20
20
20
20
20
20
20
20
20
F8
ENDCHAR
STARTCHAR J
ENCODING 74
SWIDTH 600 0
DWIDTH 8 0
BBX 5 11 1 0
BITMAP
38
08
08
08
08
08
08
08
08
88
F0
ENDCHAR
STARTCHAR K
ENCODING 75
SWIDTH 600 0
DWIDTH 8 0
BBX 8 11 1 0
BITMAP
84
88
90
90
A0
C0
A0
90
88
84
82
ENDCHAR
STARTCHAR L
ENCODING 76
SWIDTH 600 0
DWIDTH 8 0
BBX 5 11 2 0
BITMAP
80
80
80
80
80
80
80
80
80
80
F8
ENDCHAR
STARTCHAR M
ENCODING 77
SWIDTH 600 0
DWIDTH 8 0
BBX 7 11 1 0
BITMAP
82
C6
C6
C6
AA
AA
AA
92
92
82
82
ENDCHAR
STARTCHAR N
ENCODING 78
SWIDTH 600 0
DWIDTH 8 0
BBX 6 11 1 0
BITMAP
84
C4
C4
A4
A4
A4
94
94
8C
8C
84
ENDCHAR
STARTCHAR O
ENCODING 79
SWIDTH 600 0
DWIDTH 8 0
BBX 6 11 1 0
BITMAP
30
48
84
84
84
84
84
84
84
48
30
ENDCHAR
STARTCHAR P
ENCODING 80
SWIDTH 600 0
DWIDTH 8 0
BBX 6 11 1 0
BITMAP
F8
84
84
84
84
88
F0
80
80
80
80
ENDCHAR
STARTCHAR Q
ENCODING 81
SWIDTH 600 0
DWIDTH 8 0
BBX 7 14 1 -3
BITMAP
30
48
84
84
84
84
84
84
84
48
30
10
10
0E
ENDCHAR
STARTCHAR R
ENCODING 82
SWIDTH 600 0
DWIDTH 8 0
BBX 6 11 1 0
BITMAP
F0
88
88
88
90
E0
A0
90
90
88
88
ENDCHAR
STARTCHAR S
ENCODING 83
SWIDTH 600 0
DWIDTH 8 0
BBX 6 11 1 0
BITMAP
78
80
80
80
40
30
08
04
04
04
F8
ENDCHAR
STARTCHAR T
ENCODING 84
SWIDTH 600 0
DWIDTH 8 0
BBX 7 11 0 0
BITMAP
FE
10
10
10
10
10
10
10
10
10
10
ENDCHAR
STARTCHAR U
ENCODING 85
SWIDTH 600 0
DWIDTH 8 0
BBX 6 11 1 0
BITMAP
84
84
84
84
84
84
84
84
84
84
78
ENDCHAR
STARTCHAR V
ENCODING 86
SWIDTH 600 0
DWIDTH 8 0
BBX 9 11 0 0
BITMAP
4100
4100
4100
2200
2200
2200
1400
1400
1400
0800
0800
ENDCHAR
STARTCHAR W
ENCODING 87
SWIDTH 600 0
DWIDTH 8 0
BBX 7 11 0 0
BITMAP
92
92
92
AA
AA
AA
6C
44
44
44
44
ENDCHAR
STARTCHAR X
ENCODING 88
SWIDTH 600 0
DWIDTH 8 0
BBX 8 11 0 0
BITMAP
42
24
24
18
18
18
18
24
24
42
42
ENDCHAR
STARTCHAR Y
ENCODING 89
SWIDTH 600 0
DWIDTH 8 0
BBX 9 11 0 0
BITMAP
4100
4100
2200
1400
1400
0800
0800
0800
0800
0800
0800
ENDCHAR
STARTCHAR Z
ENCODING 90
SWIDTH 600 0
DWIDTH 8 0
BBX 6 11 1 0
BITMAP
FC
04
08
08
10
10
20
40
40
80
FC
ENDCHAR
STARTCHAR bracketleft
ENCODING 91
SWIDTH 600 0
DWIDTH 8 0
BBX 4 14 2 -2
BITMAP
F0
80
80
80
80
80
80
80
80
80
80
80
80
F0
ENDCHAR
STARTCHAR backslash
ENCODING 92
SWIDTH 600 0
DWIDTH 8 0
BBX 7 11 1 0
BITMAP
80
80
40
20
20
10
10
08
08
04
02
ENDCHAR
STARTCHAR bracketright
ENCODING 93
SWIDTH 600 0
DWIDTH 8 0
BBX 4 14 2 -2
BITMAP
F0
10
10
10
10
10
10
10
10
10
10
10
10
F0
ENDCHAR
STARTCHAR asciicircum
ENCODING 94
SWIDTH 600 0
DWIDTH 8 0
BBX 7 7 0 4
BITMAP
10
10
28
28
44
44
82
ENDCHAR
STARTCHAR underscore
ENCODING 95
SWIDTH 600 0
DWIDTH 8 0
BBX 7 1 0 -1
BITMAP
FE
ENDCHAR
STARTCHAR grave
ENCODING 96
SWIDTH 600 0
DWIDTH 8 0
BBX 4 2 1 9
BITMAP
40
20
ENDCHAR
STARTCHAR a
ENCODING 97
SWIDTH 600 0
DWIDTH 8 0
BBX 6 8 1 0
BITMAP
3C
44
84
84
84
84
8C
74
ENDCHAR
STARTCHAR b
ENCODING 98
SWIDTH 600 0
DWIDTH 8 0
BBX 6 11 1 0
BITMAP
80
80
80
B8
C4
84
84
84
84
88
F0
ENDCHAR
STARTCHAR c
ENCODING 99
SWIDTH 600 0
DWIDTH 8 0
BBX 6 8 1 0
BITMAP
3C
40
80
80
80
80
40
3C
ENDCHAR
STARTCHAR d
ENCODING 100
SWIDTH 600 0
DWIDTH 8 0
BBX 6 11 1 0
BITMAP
04
04
04
3C
44
84
84
84
84
8C
74
ENDCHAR
STARTCHAR e
ENCODING 101
SWIDTH 600 0
DWIDTH 8 0
BBX 6 8 1 0
BITMAP
38
44
84
FC
80
80
40
3C
ENDCHAR
STARTCHAR f
ENCODING 102
SWIDTH 600 0
DWIDTH 8 0
BBX 7 11 1 0
BITMAP
1E
20
20
20
FC
20
20
20
20
20
20
ENDCHAR
STARTCHAR g
ENCODING 103
SWIDTH 600 0
DWIDTH 8 0
BBX 6 11 1 -3
BITMAP
3C
44
84
84
84
84
8C
74
04
88
70
ENDCHAR
STARTCHAR h
ENCODING 104
SWIDTH 600 0
DWIDTH 8 0
BBX 6 11 1 0
BITMAP
80
80
80
B8
C4
84
84
84
84
84
84
ENDCHAR
STARTCHAR i
ENCODING 105
SWIDTH 600 0
DWIDTH 8 0
BBX 5 11 1 0
BITMAP
20
00
00
E0
20
20
20
20
20
20
38
ENDCHAR
STARTCHAR j
ENCODING 106
SWIDTH 600 0
DWIDTH 8 0
BBX 5 14 1 -3
BITMAP
08
00
00
78
08
08
08
08
08
08
08
08
10
E0
ENDCHAR
STARTCHAR k
ENCODING 107
SWIDTH 600 0
DWIDTH 8 0
BBX 6 11 1 0
BITMAP
80
80
80
88
90
A0
C0
C0
A0
90
88
ENDCHAR
STARTCHAR l
ENCODING 108
SWIDTH 600 0
DWIDTH 8 0
BBX 5 11 1 0
BITMAP
E0
20
20
20
20
20
20
20
20
20
38
ENDCHAR
STARTCHAR m
ENCODING 109
SWIDTH 600 0
DWIDTH 8 0
BBX 7 8 0 0
BITMAP
B6
DA
92
92
92
92
92
92
ENDCHAR
STARTCHAR n
ENCODING 110
SWIDTH 600 0
DWIDTH 8 0
BBX 6 8 1 0
BITMAP
B8
C4
84
84
84
84
84
84
ENDCHAR
STARTCHAR o
ENCODING 111
SWIDTH 600 0
DWIDTH 8 0
BBX 6 8 1 0
BITMAP
30
48
84
84
84
84
48
30
ENDCHAR
STARTCHAR p
ENCODING 112
SWIDTH 600 0
DWIDTH 8 0
BBX 6 11 1 -3
BITMAP
B8
C4
84
84
84
84
88
F0
80
80
80
ENDCHAR
STARTCHAR q
ENCODING 113
SWIDTH 600 0
DWIDTH 8 0
BBX 6 11 1 -3
BITMAP
3C
44
84
84
84
84
8C
74
04
04
04
ENDCHAR
STARTCHAR r
ENCODING 114
SWIDTH 600 0
DWIDTH 8 0
BBX 5 8 2 0
BITMAP
B8
C8
88
80
80
80
80
80
ENDCHAR
STARTCHAR s
ENCODING 115
SWIDTH 600 0
DWIDTH 8 0
BBX 6 8 1 0
BITMAP
78
84
80
60
18
04
84
78
ENDCHAR
STARTCHAR t
ENCODING 116
SWIDTH 600 0
DWIDTH 8 0
BBX 6 10 1 0
BITMAP
20
20
20
FC
20
20
20
20
20
1C
ENDCHAR
STARTCHAR u
ENCODING 117
SWIDTH 600 0
DWIDTH 8 0
BBX 6 8 1 0
BITMAP
84
84
84
84
84
84
8C
74
ENDCHAR
STARTCHAR v
ENCODING 118
SWIDTH 600 0
DWIDTH 8 0
BBX 9 8 0 0
BITMAP
4100
4100
2200
2200
2200
1400
1400
0800
ENDCHAR
STARTCHAR w
ENCODING 119
SWIDTH 600 0
DWIDTH 8 0
BBX 7 8 0 0
BITMAP
92
92
AA
AA
AA
AA
44
44
ENDCHAR
STARTCHAR x
ENCODING 120
SWIDTH 600 0
DWIDTH 8 0
BBX 7 8 0 0
BITMAP
44
28
28
10
10
28
44
44
ENDCHAR
STARTCHAR y
ENCODING 121
SWIDTH 600 0
DWIDTH 8 0
BBX 8 11 0 -3
BITMAP
42
42
22
24
14
18
08
08
10
10
E0
ENDCHAR
STARTCHAR z
ENCODING 122
SWIDTH 600 0
DWIDTH 8 0
BBX 6 8 1 0
BITMAP
FC
04
08
10
20
40
80
FC
ENDCHAR
STARTCHAR braceleft
ENCODING 123
SWIDTH 600 0
DWIDTH 8 0
BBX 6 14 2 -2
BITMAP
1C
20
20
20
20
20
C0
20
20
20
20
20
20
1C
ENDCHAR
STARTCHAR bar
ENCODING 124
SWIDTH 600 0
DWIDTH 8 0
BBX 1 11 3 0
BITMAP
80
80
80
80
80
80
80
80
80
80
80
ENDCHAR
STARTCHAR braceright
ENCODING 125
SWIDTH 600 0
DWIDTH 8 0
BBX 6 14 1 -2
BITMAP
E0
10
10
10
10
10
0C
10
10
10
10
10
10
E0
ENDCHAR
STARTCHAR asciitilde
ENCODING 126
SWIDTH 600 0
DWIDTH 8 0
BBX 6 3 1 3
BITMAP
64
B4
98
ENDCHAR
STARTCHAR char007f
ENCODING 127
SWIDTH 600 0
DWIDTH 0 0
BBX 0 0 0 -3
BITMAP
ENDCHAR
STARTCHAR Adieresis
ENCODING 128
SWIDTH 600 0
DWIDTH 8 0
BBX 8 13 0 0
BITMAP
24
00
18
18
18
24
24
24
42
42
7E
81
81
ENDCHAR
STARTCHAR Aring
ENCODING 129
SWIDTH 600 0
DWIDTH 8 0
BBX 7 13 1 0
BITMAP
10
28
10
10
10
28
28
44
44
44
FE
82
82
ENDCHAR
STARTCHAR Ccedilla
ENCODING 130
SWIDTH 600 0
DWIDTH 8 0
BBX 6 14 1 -3
BITMAP
3C
40
80
80
80
80
80
80
80
40
3C
10
08
10
ENDCHAR
STARTCHAR Eacute
ENCODING 131
SWIDTH 600 0
DWIDTH 8 0
BBX 6 14 1 0
BITMAP
10
20
00
FC
80
80
80
80
FC
80
80
80
80
FC
ENDCHAR
STARTCHAR Ntilde
ENCODING 132
SWIDTH 600 0
DWIDTH 8 0
BBX 6 14 1 0
BITMAP
68
58
00
84
C4
C4
A4
A4
A4
94
94
8C
8C
84
ENDCHAR
STARTCHAR Odieresis
ENCODING 133
SWIDTH 600 0
DWIDTH 8 0
BBX 6 13 1 0
BITMAP
48
00
30
48
84
84
84
84
84
84
84
48
30
ENDCHAR
STARTCHAR Udieresis
ENCODING 134
SWIDTH 600 0
DWIDTH 8 0
BBX 6 13 1 0
BITMAP
48
00
84
84
84
84
84
84
84
84
84
84
78
ENDCHAR
STARTCHAR aacute
ENCODING 135
SWIDTH 600 0
DWIDTH 8 0
BBX 6 11 1 0
BITMAP
08
10
00
3C
44
84
84
84
84
8C
74
ENDCHAR
STARTCHAR agrave
ENCODING 136
SWIDTH 600 0
DWIDTH 8 0
BBX 6 11 1 0
BITMAP
40
20
00
3C
44
84
84
84
84
8C
74
ENDCHAR
STARTCHAR acircumflex
ENCODING 137
SWIDTH 600 0
DWIDTH 8 0
BBX 7 11 1 0
BITMAP
08
14
00
3C
44
84
84
84
84
8C
74
ENDCHAR
STARTCHAR adieresis
ENCODING 138
SWIDTH 600 0
DWIDTH 8 0
BBX 6 10 1 0
BITMAP
48
00
3C
44
84
84
84
84
8C
74
ENDCHAR
STARTCHAR atilde
ENCODING 139
SWIDTH 600 0
DWIDTH 8 0
BBX 6 11 1 0
BITMAP
68
58
00
3C
44
84
84
84
84
8C
74
ENDCHAR
STARTCHAR aring
ENCODING 140
SWIDTH 600 0
DWIDTH 8 0
BBX 6 11 1 0
BITMAP
38
28
38
3C
44
84
84
84
84
8C
74
ENDCHAR
STARTCHAR ccedilla
ENCODING 141
SWIDTH 600 0
DWIDTH 8 0
BBX 6 11 1 -3
BITMAP
38
44
80
80
80
80
44
38
20
10
20
ENDCHAR
STARTCHAR eacute
ENCODING 142
SWIDTH 600 0
DWIDTH 8 0
BBX 6 11 1 0
BITMAP
08
10
00
38
44
84
FC
80
80
40
3C
ENDCHAR
STARTCHAR egrave
ENCODING 143
SWIDTH 600 0
DWIDTH 8 0
BBX 6 11 1 0
BITMAP
20
10
00
38
44
84
FC
80
80
40
3C
ENDCHAR
STARTCHAR ecircumflex
ENCODING 144
SWIDTH 600 0
DWIDTH 8 0
BBX 6 11 1 0
BITMAP
10
28
00
38
44
84
FC
80
80
40
3C
ENDCHAR
STARTCHAR edieresis
ENCODING 145
SWIDTH 600 0
DWIDTH 8 0
BBX 6 10 1 0
BITMAP
48
00
38
44
84
FC
80
80
40
3C
ENDCHAR
STARTCHAR iacute
ENCODING 146
SWIDTH 600 0
DWIDTH 8 0
BBX 5 11 1 0
BITMAP
10
20
00
E0
20
20
20
20
20
20
38
ENDCHAR
STARTCHAR igrave
ENCODING 147
SWIDTH 600 0
DWIDTH 8 0
BBX 5 11 1 0
BITMAP
40
20
00
E0
20
20
20
20
20
20
38
ENDCHAR
STARTCHAR icircumflex
ENCODING 148
SWIDTH 600 0
DWIDTH 8 0
BBX 6 11 1 0
BITMAP
10
28
00
E0
20
20
20
20
20
20
38
ENDCHAR
STARTCHAR idieresis
ENCODING 149
SWIDTH 600 0
DWIDTH 8 0
BBX 5 10 1 0
BITMAP
48
00
E0
20
20
20
20
20
20
38
ENDCHAR
STARTCHAR ntilde
ENCODING 150
SWIDTH 600 0
DWIDTH 8 0
BBX 6 11 1 0
BITMAP
68
58
00
B8
C4
84
84
84
84
84
84
ENDCHAR
STARTCHAR oacute
ENCODING 151
SWIDTH 600 0
DWIDTH 8 0
BBX 6 11 1 0
BITMAP
10
20
00
30
48
84
84
84
84
48
30
ENDCHAR
STARTCHAR ograve
ENCODING 152
SWIDTH 600 0
DWIDTH 8 0
BBX 6 11 1 0
BITMAP
40
20
00
30
48
84
84
84
84
48
30
ENDCHAR
STARTCHAR ocircumflex
ENCODING 153
SWIDTH 600 0
DWIDTH 8 0
BBX 6 11 1 0
BITMAP
10
28
00
30
48
84
84
84
84
48
30
ENDCHAR
STARTCHAR odieresis
ENCODING 154
SWIDTH 600 0
DWIDTH 8 0
BBX 6 10 1 0
BITMAP
48
00
30
48
84
84
84
84
48
30
ENDCHAR
STARTCHAR otilde
ENCODING 155
SWIDTH 600 0
DWIDTH 8 0
BBX 6 11 1 0
BITMAP
68
58
00
30
48
84
84
84
84
48
30
ENDCHAR
STARTCHAR uacute
ENCODING 156
SWIDTH 600 0
DWIDTH 8 0
BBX 6 11 1 0
BITMAP
08
10
00
84
84
84
84
84
84
8C
74
ENDCHAR
STARTCHAR ugrave
ENCODING 157
SWIDTH 600 0
DWIDTH 8 0
BBX 6 11 1 0
BITMAP
40
20
00
84
84
84
84
84
84
8C
74
ENDCHAR
STARTCHAR ucircumflex
ENCODING 158
SWIDTH 600 0
DWIDTH 8 0
BBX 6 11 1 0
BITMAP
10
28
00
84
84
84
84
84
84
8C
74
ENDCHAR
STARTCHAR udieresis
ENCODING 159
SWIDTH 600 0
DWIDTH 8 0
BBX 6 10 1 0
BITMAP
48
00
84
84
84
84
84
84
8C
74
ENDCHAR
STARTCHAR dagger
ENCODING 160
SWIDTH 600 0
DWIDTH 8 0
BBX 5 14 1 -3
BITMAP
20
20
20
F8
20
20
20
20
20
20
20
20
20
20
ENDCHAR
STARTCHAR degree
ENCODING 161
SWIDTH 600 0
DWIDTH 8 0
BBX 4 4 2 7
BITMAP
60
90
90
60
ENDCHAR
STARTCHAR cent
ENCODING 162
SWIDTH 600 0
DWIDTH 8 0
BBX 6 12 1 0
BITMAP
10
10
3C
54
90
90
90
90
50
3C
10
10
ENDCHAR
STARTCHAR sterling
ENCODING 163
SWIDTH 600 0
DWIDTH 8 0
BBX 6 11 1 0
BITMAP
3C
40
40
40
40
F8
40
40
40
40
FC
ENDCHAR
STARTCHAR section
ENCODING 164
SWIDTH 600 0
DWIDTH 8 0
BBX 6 13 1 -2
BITMAP
78
80
80
C0
B0
88
84
44
34
0C
04
04
F8
ENDCHAR
STARTCHAR bullet
ENCODING 165
SWIDTH 600 0
DWIDTH 8 0
BBX 6 6 1 2
BITMAP
78
FC
FC
FC
FC
78
ENDCHAR
STARTCHAR paragraph
ENCODING 166
SWIDTH 600 0
DWIDTH 8 0
BBX 7 13 0 -3
BITMAP
7E
F4
F4
F4
74
34
14
14
14
14
14
14
14
ENDCHAR
STARTCHAR germandbls
ENCODING 167
SWIDTH 600 0
DWIDTH 8 0
BBX 6 11 1 0
BITMAP
70
C8
88
90
A0
A0
98
8C
84
84
B8
ENDCHAR
STARTCHAR registered
ENCODING 168
SWIDTH 600 0
DWIDTH 8 0
BBX 8 11 0 0
BITMAP
3C
42
7A
A9
A9
B1
B1
A9
6A
46
3C
ENDCHAR
STARTCHAR copyright
ENCODING 169
SWIDTH 600 0
DWIDTH 8 0
BBX 8 11 0 0
BITMAP
3C
42
5E
A1
A1
A1
A1
A1
5E
42
3C
ENDCHAR
STARTCHAR trademark
ENCODING 170
SWIDTH 600 0
DWIDTH 8 0
BBX 7 5 0 6
BITMAP
F2
5E
5E
52
52
ENDCHAR
STARTCHAR acute
ENCODING 171
SWIDTH 600 0
DWIDTH 8 0
BBX 4 2 2 9
BITMAP
20
40
ENDCHAR
STARTCHAR dieresis
ENCODING 172
SWIDTH 600 0
DWIDTH 8 0
BBX 4 1 2 9
BITMAP
90
ENDCHAR
STARTCHAR notequal
ENCODING 173
SWIDTH 600 0
DWIDTH 8 0
BBX 7 7 0 2
BITMAP
02
04
FE
10
FE
40
80
ENDCHAR
STARTCHAR AE
ENCODING 174
SWIDTH 600 0
DWIDTH 8 0
BBX 8 11 0 0
BITMAP
07
04
0C
0C
14
17
24
3C
24
44
47
ENDCHAR
STARTCHAR Oslash
ENCODING 175
SWIDTH 600 0
DWIDTH 8 0
BBX 6 11 1 0
BITMAP
34
48
8C
94
94
A4
A4
A4
C4
48
B0
ENDCHAR
STARTCHAR infinity
ENCODING 176
SWIDTH 600 0
DWIDTH 8 0
BBX 8 5 0 1
BITMAP
66
99
99
99
66
ENDCHAR
STARTCHAR plusminus
ENCODING 177
SWIDTH 600 0
DWIDTH 8 0
BBX 7 9 0 0
BITMAP
10
10
10
FE
10
10
10
00
FE
ENDCHAR
STARTCHAR lessequal
ENCODING 178
SWIDTH 600 0
DWIDTH 8 0
BBX 7 9 0 0
BITMAP
02
0C
30
C0
30
0C
02
00
FE
ENDCHAR
STARTCHAR greaterequal
ENCODING 179
SWIDTH 600 0
DWIDTH 8 0
BBX 7 9 1 0
BITMAP
80
60
18
06
18
60
80
00
FE
ENDCHAR
STARTCHAR yen
ENCODING 180
SWIDTH 600 0
DWIDTH 8 0
BBX 9 11 0 0
BITMAP
4100
4100
2200
1400
1400
0800
3E00
0800
3E00
0800
0800
ENDCHAR
STARTCHAR mu
ENCODING 181
SWIDTH 600 0
DWIDTH 8 0
BBX 6 10 1 -2
BITMAP
84
84
84
84
84
84
CC
B4
80
80
ENDCHAR
STARTCHAR partialdiff
ENCODING 182
SWIDTH 600 0
DWIDTH 8 0
BBX 7 11 0 0
BITMAP
38
0C
06
3E
42
82
82
82
82
84
78
ENDCHAR
STARTCHAR summation
ENCODING 183
SWIDTH 600 0
DWIDTH 8 0
BBX 6 14 1 -3
BITMAP
FC
80
40
40
20
20
10
20
20
20
40
40
80
FC
ENDCHAR
STARTCHAR product
ENCODING 184
SWIDTH 600 0
DWIDTH 8 0
BBX 7 13 0 -3
BITMAP
FE
44
44
44
44
44
44
44
44
44
44
44
44
ENDCHAR
STARTCHAR pi
ENCODING 185
SWIDTH 600 0
DWIDTH 8 0
BBX 8 8 0 0
BITMAP
FF
22
22
22
22
22
22
22
ENDCHAR
STARTCHAR integral
ENCODING 186
SWIDTH 600 0
DWIDTH 8 0
BBX 6 13 2 -2
BITMAP
18
28
20
20
20
20
20
20
20
20
20
A0
40
ENDCHAR
STARTCHAR ordfeminine
ENCODING 187
SWIDTH 600 0
DWIDTH 8 0
BBX 5 7 1 4
BITMAP
78
88
88
98
68
00
F8
ENDCHAR
STARTCHAR ordmasculine
ENCODING 188
SWIDTH 600 0
DWIDTH 8 0
BBX 5 7 1 4
BITMAP
70
88
88
88
70
00
F8
ENDCHAR
STARTCHAR Omega
ENCODING 189
SWIDTH 600 0
DWIDTH 8 0
BBX 7 11 0 0
BITMAP
38
44
C6
82
82
82
82
82
C6
44
EE
ENDCHAR
STARTCHAR ae
ENCODING 190
SWIDTH 600 0
DWIDTH 8 0
BBX 8 8 0 0
BITMAP
36
49
89
8F
88
88
58
2F
ENDCHAR
STARTCHAR oslash
ENCODING 191
SWIDTH 600 0
DWIDTH 8 0
BBX 7 8 1 0
BITMAP
3A
44
8A
92
92
A2
44
B8
ENDCHAR
STARTCHAR questiondown
ENCODING 192
SWIDTH 600 0
DWIDTH 8 0
BBX 6 12 0 -3
BITMAP
10
10
00
10
10
10
20
40
80
84
44
38
ENDCHAR
STARTCHAR exclamdown
ENCODING 193
SWIDTH 600 0
DWIDTH 8 0
BBX 1 11 4 -3
BITMAP
80
00
80
80
80
80
80
80
80
80
80
ENDCHAR
STARTCHAR logicalnot
ENCODING 194
SWIDTH 600 0
DWIDTH 8 0
BBX 7 3 0 1
BITMAP
FE
02
02
ENDCHAR
STARTCHAR radical
ENCODING 195
SWIDTH 600 0
DWIDTH 8 0
BBX 8 14 0 -3
BITMAP
03
02
02
04
04
04
C4
C8
28
28
28
10
10
10
ENDCHAR
STARTCHAR florin
ENCODING 196
SWIDTH 600 0
DWIDTH 8 0
BBX 7 14 1 -3
BITMAP
0E
10
20
20
F8
20
20
20
20
20
20
20
20
C0
ENDCHAR
STARTCHAR approxequal
ENCODING 197
SWIDTH 600 0
DWIDTH 8 0
BBX 8 6 0 1
BITMAP
61
99
86
61
99
86
ENDCHAR
STARTCHAR Delta
ENCODING 198
SWIDTH 600 0
DWIDTH 8 0
BBX 8 10 0 0
BITMAP
18
18
38
2C
2C
46
46
46
83
FF
ENDCHAR
STARTCHAR guillemotleft
ENCODING 199
SWIDTH 600 0
DWIDTH 8 0
BBX 6 7 1 0
BITMAP
6C
48
D8
90
D8
48
6C
ENDCHAR
STARTCHAR guillemotright
ENCODING 200
SWIDTH 600 0
DWIDTH 8 0
BBX 6 7 1 0
BITMAP
D8
48
6C
24
6C
48
D8
ENDCHAR
STARTCHAR ellipsis
ENCODING 201
SWIDTH 600 0
DWIDTH 8 0
BBX 5 1 1 0
BITMAP
A8
ENDCHAR
STARTCHAR nbspace
ENCODING 202
SWIDTH 600 0
DWIDTH 8 0
BBX 0 0 0 -3
BITMAP
ENDCHAR
STARTCHAR Agrave
ENCODING 203
SWIDTH 600 0
DWIDTH 8 0
BBX 8 14 0 0
BITMAP
20
10
00
18
18
18
24
24
24
42
42
7E
81
81
ENDCHAR
STARTCHAR Atilde
ENCODING 204
SWIDTH 600 0
DWIDTH 8 0
BBX 8 14 0 0
BITMAP
34
2C
00
18
18
18
24
24
24
42
42
7E
81
81
ENDCHAR
STARTCHAR Otilde
ENCODING 205
SWIDTH 600 0
DWIDTH 8 0
BBX 6 14 1 0
BITMAP
68
58
00
30
48
84
84
84
84
84
84
84
48
30
ENDCHAR
STARTCHAR OE
ENCODING 206
SWIDTH 600 0
DWIDTH 8 0
BBX 7 11 0 0
BITMAP
3E
50
90
90
90
9E
90
90
90
50
3E
ENDCHAR
STARTCHAR oe
ENCODING 207
SWIDTH 600 0
DWIDTH 8 0
BBX 8 8 0 0
BITMAP
76
89
89
8F
88
88
88
77
ENDCHAR
STARTCHAR endash
ENCODING 208
SWIDTH 600 0
DWIDTH 8 0
BBX 7 1 0 5
BITMAP
FE
ENDCHAR
STARTCHAR emdash
ENCODING 209
SWIDTH 600 0
DWIDTH 8 0
BBX 7 1 0 5
BITMAP
FE
ENDCHAR
STARTCHAR quotedblleft
ENCODING 210
SWIDTH 600 0
DWIDTH 8 0
BBX 7 5 1 6
BITMAP
22
44
88
EE
EE
ENDCHAR
STARTCHAR quotedblright
ENCODING 211
SWIDTH 600 0
DWIDTH 8 0
BBX 7 5 0 6
BITMAP
EE
EE
22
44
88
ENDCHAR
STARTCHAR quoteleft
ENCODING 212
SWIDTH 600 0
DWIDTH 8 0
BBX 3 5 2 6
BITMAP
20
40
80
E0
E0
ENDCHAR
STARTCHAR quoteright
ENCODING 213
SWIDTH 600 0
DWIDTH 8 0
BBX 3 5 2 6
BITMAP
E0
E0
20
40
80
ENDCHAR
STARTCHAR divide
ENCODING 214
SWIDTH 600 0
DWIDTH 8 0
BBX 7 5 0 3
BITMAP
10
00
FE
00
10
ENDCHAR
STARTCHAR lozenge
ENCODING 215
SWIDTH 600 0
DWIDTH 8 0
BBX 7 11 0 0
BITMAP
10
10
28
44
44
82
44
44
28
10
10
ENDCHAR
STARTCHAR ydieresis
ENCODING 216
SWIDTH 600 0
DWIDTH 8 0
BBX 8 13 0 -3
BITMAP
24
00
42
42
22
24
14
14
08
08
10
10
E0
ENDCHAR
STARTCHAR Ydieresis
ENCODING 217
SWIDTH 600 0
DWIDTH 8 0
BBX 9 13 0 0
BITMAP
2400
0000
4100
4100
2200
1400
1400
0800
0800
0800
0800
0800
0800
ENDCHAR
STARTCHAR fraction
ENCODING 218
SWIDTH 600 0
DWIDTH 8 0
BBX 9 11 0 0
BITMAP
0100
0100
0200
0400
0400
0800
1000
1000
2000
4000
4000
ENDCHAR
STARTCHAR currency
ENCODING 219
SWIDTH 600 0
DWIDTH 8 0
BBX 9 9 0 0
BITMAP
1F00
2080
4000
FF00
4000
FE00
4000
2080
1F00
ENDCHAR
STARTCHAR guilsinglleft
ENCODING 220
SWIDTH 600 0
DWIDTH 8 0
BBX 4 7 2 0
BITMAP
10
30
60
80
60
30
10
ENDCHAR
STARTCHAR guilsinglright
ENCODING 221
SWIDTH 600 0
DWIDTH 8 0
BBX 4 7 2 0
BITMAP
80
C0
60
10
60
C0
80
ENDCHAR
STARTCHAR fi
ENCODING 222
SWIDTH 600 0
DWIDTH 8 0
BBX 7 11 0 0
BITMAP
1C
20
20
20
FE
22
22
22
22
22
22
ENDCHAR
STARTCHAR fl
ENCODING 223
SWIDTH 600 0
DWIDTH 8 0
BBX 7 11 0 0
BITMAP
1E
22
22
22
FA
22
22
22
22
22
22
ENDCHAR
STARTCHAR daggerdbl
ENCODING 224
SWIDTH 600 0
DWIDTH 8 0
BBX 5 14 1 -3
BITMAP
20
20
20
F8
20
20
20
20
20
20
20
F8
20
20
ENDCHAR
STARTCHAR periodcentered
ENCODING 225
SWIDTH 600 0
DWIDTH 8 0
BBX 2 2 3 3
BITMAP
C0
C0
ENDCHAR
STARTCHAR quotesinglbase
ENCODING 226
SWIDTH 600 0
DWIDTH 8 0
BBX 3 5 3 -3
BITMAP
E0
E0
20
40
80
ENDCHAR
STARTCHAR quotedblbase
ENCODING 227
SWIDTH 600 0
DWIDTH 8 0
BBX 6 5 1 -3
BITMAP
6C
6C
24
48
90
ENDCHAR
STARTCHAR perthousand
ENCODING 228
SWIDTH 600 0
DWIDTH 8 0
BBX 8 12 0 0
BITMAP
60
90
92
94
68
10
20
76
C9
49
49
36
ENDCHAR
STARTCHAR Acircumflex
ENCODING 229
SWIDTH 600 0
DWIDTH 8 0
BBX 8 14 0 0
BITMAP
08
14
00
18
18
18
24
24
24
42
42
7E
81
81
ENDCHAR
STARTCHAR Ecircumflex
ENCODING 230
SWIDTH 600 0
DWIDTH 8 0
BBX 6 14 1 0
BITMAP
10
28
00
FC
80
80
80
80
FC
80
80
80
80
FC
ENDCHAR
STARTCHAR Aacute
ENCODING 231
SWIDTH 600 0
DWIDTH 8 0
BBX 8 14 0 0
BITMAP
08
10
00
18
18
18
24
24
24
42
42
7E
81
81
ENDCHAR
STARTCHAR Edieresis
ENCODING 232
SWIDTH 600 0
DWIDTH 8 0
BBX 6 13 1 0
BITMAP
48
00
FC
80
80
80
80
FC
80
80
80
80
FC
ENDCHAR
STARTCHAR Egrave
ENCODING 233
SWIDTH 600 0
DWIDTH 8 0
BBX 6 14 1 0
BITMAP
40
20
00
FC
80
80
80
80
FC
80
80
80
80
FC
ENDCHAR
STARTCHAR Iacute
ENCODING 234
SWIDTH 600 0
DWIDTH 8 0
BBX 5 14 1 0
BITMAP
10
20
00
F8
20
20
20
20
20
20
20
20
20
F8
ENDCHAR
STARTCHAR Icircumflex
ENCODING 235
SWIDTH 600 0
DWIDTH 8 0
BBX 6 14 1 0
BITMAP
10
28
00
F8
20
20
20
20
20
20
20
20
20
F8
ENDCHAR
STARTCHAR Idieresis
ENCODING 236
SWIDTH 600 0
DWIDTH 8 0
BBX 5 13 1 0
BITMAP
48
00
F8
20
20
20
20
20
20
20
20
20
F8
ENDCHAR
STARTCHAR Igrave
ENCODING 237
SWIDTH 600 0
DWIDTH 8 0
BBX 5 14 1 0
BITMAP
40
20
00
F8
20
20
20
20
20
20
20
20
20
F8
ENDCHAR
STARTCHAR Oacute
ENCODING 238
SWIDTH 600 0
DWIDTH 8 0
BBX 6 14 1 0
BITMAP
10
20
00
30
48
84
84
84
84
84
84
84
48
30
ENDCHAR
STARTCHAR Ocircumflex
ENCODING 239
SWIDTH 600 0
DWIDTH 8 0
BBX 6 14 1 0
BITMAP
10
28
00
30
48
84
84
84
84
84
84
84
48
30
ENDCHAR
STARTCHAR apple
ENCODING 240
SWIDTH 600 0
DWIDTH 8 0
BBX 7 9 0 0
BITMAP
08
10
6C
FE
FC
FC
FC
FE
7C
ENDCHAR
STARTCHAR Ograve
ENCODING 241
SWIDTH 600 0
DWIDTH 8 0
BBX 6 14 1 0
BITMAP
40
20
00
30
48
84
84
84
84
84
84
84
48
30
ENDCHAR
STARTCHAR Uacute
ENCODING 242
SWIDTH 600 0
DWIDTH 8 0
BBX 6 14 1 0
BITMAP
10
20
00
84
84
84
84
84
84
84
84
84
84
78
ENDCHAR
STARTCHAR Ucircumflex
ENCODING 243
SWIDTH 600 0
DWIDTH 8 0
BBX 6 14 1 0
BITMAP
10
28
00
84
84
84
84
84
84
84
84
84
84
78
ENDCHAR
STARTCHAR Ugrave
ENCODING 244
SWIDTH 600 0
DWIDTH 8 0
BBX 6 14 1 0
BITMAP
40
20
00
84
84
84
84
84
84
84
84
84
84
78
ENDCHAR
STARTCHAR dotlessi
ENCODING 245
SWIDTH 600 0
DWIDTH 8 0
BBX 5 8 1 0
BITMAP
E0
20
20
20
20
20
20
38
ENDCHAR
STARTCHAR circumflex
ENCODING 246
SWIDTH 600 0
DWIDTH 8 0
BBX 5 2 2 9
BITMAP
20
50
ENDCHAR
STARTCHAR tilde
ENCODING 247
SWIDTH 600 0
DWIDTH 8 0
BBX 4 2 2 9
BITMAP
D0
B0
ENDCHAR
STARTCHAR macron
ENCODING 248
SWIDTH 600 0
DWIDTH 8 0
BBX 3 1 2 9
BITMAP
E0
ENDCHAR
STARTCHAR breve
ENCODING 249
SWIDTH 600 0
DWIDTH 8 0
BBX 4 2 2 9
BITMAP
90
60
ENDCHAR
STARTCHAR dotaccent
ENCODING 250
SWIDTH 600 0
DWIDTH 8 0
BBX 2 2 3 9
BITMAP
C0
C0
ENDCHAR
STARTCHAR ring
ENCODING 251
SWIDTH 600 0
DWIDTH 8 0
BBX 3 3 3 8
BITMAP
E0
A0
E0
ENDCHAR
STARTCHAR cedilla
ENCODING 252
SWIDTH 600 0
DWIDTH 8 0
BBX 2 3 3 -3
BITMAP
80
40
80
ENDCHAR
STARTCHAR hungarumlaut
ENCODING 253
SWIDTH 600 0
DWIDTH 8 0
BBX 4 2 3 9
BITMAP
50
A0
ENDCHAR
STARTCHAR ogonek
ENCODING 254
SWIDTH 600 0
DWIDTH 8 0
BBX 2 3 3 -3
BITMAP
80
80
40
ENDCHAR
STARTCHAR caron
ENCODING 255
SWIDTH 600 0
DWIDTH 8 0
BBX 5 2 2 9
BITMAP
50
20
ENDCHAR
ENDFONT
